<svg xmlns="http://www.w3.org/2000/svg" width="275.405" height="318.021" viewBox="0 0 275.405 318.021"><defs><style>.a{fill:none;stroke:#eaf0f4;}.a,.b{stroke-miterlimit:10;}.b{fill:rgba(117,255,176,0.38);stroke:#39ff8e;}</style></defs><g transform="translate(0.5 0.577)"><path class="a" d="M274.9,238.189V79.878L137.7.6.5,79.878V238.189l137.2,79.278Z" transform="translate(-0.5 -0.6)"/><path class="a" d="M182.656,165.248V73.7L103.378,27.8,24.1,73.7v91.55L103.378,210.9Z" transform="translate(33.824 38.96)"/><path class="a" d="M120.114,115.515V69.372L80.107,46.3,40.1,69.372v46.143l40.007,23.072Z" transform="translate(57.095 65.867)"/><path class="a" d="M137.7.6V158.911L.5,79.878" transform="translate(-0.5 -0.6)"/><path class="a" d="M.5,144.378,137.7,65.1V223.656" transform="translate(-0.5 93.211)"/><path class="a" d="M193.6,191.211,56.4,111.933,193.6,32.9" transform="translate(80.802 46.378)"/><path class="b" d="M215.272,184.432,235.563,55.594,112.789,9.719,33.511,80.587-.6,191.929l113.389,25.86Z" transform="translate(24.413 32.071)"/></g></svg>